<svg xmlns="http://www.w3.org/2000/svg" enable-background="new 0 0 64 64" viewBox="0 0 64 64"><path fill="#4e5292" d="M63.8,59.31l-2.99-2.24c-0.15-0.11-0.34-0.13-0.51-0.05c-0.17,0.09-0.28,0.26-0.28,0.44v1.74h-3.78v-40.8
		c0-0.28-0.22-0.49-0.49-0.49H51.9c-0.28,0-0.49,0.22-0.49,0.49v40.8h-3.69V25.13c0-0.27-0.23-0.49-0.49-0.49h-3.85
		c-0.28,0-0.49,0.23-0.49,0.49v34.08h-3.7v-25.1c0-0.28-0.22-0.49-0.49-0.49h-3.85c-0.27,0-0.49,0.22-0.49,0.49v25.1h-3.69V31.87
		c0-0.27-0.22-0.49-0.49-0.49h-3.85c-0.28,0-0.49,0.23-0.49,0.49v27.34h-3.69V40.85c0-0.28-0.22-0.49-0.49-0.49h-3.85
		c-0.28,0-0.49,0.22-0.49,0.49v18.36H13.6V35.23c0-0.28-0.23-0.49-0.49-0.49H9.25c-0.28,0-0.49,0.22-0.49,0.49v23.98h-5.5V5.6h1.77
		c0.19,0,0.35-0.11,0.44-0.28c0.08-0.17,0.06-0.36-0.05-0.51L3.16,1.77c-0.19-0.25-0.61-0.25-0.8,0L0.1,4.81
		c-0.11,0.15-0.13,0.34-0.05,0.51C0.14,5.49,0.3,5.6,0.49,5.6h1.78V59.7c0,0.27,0.22,0.49,0.49,0.49h57.26v1.73
		c0,0.19,0.11,0.35,0.28,0.44c0.07,0.03,0.15,0.05,0.22,0.05c0.11,0,0.21-0.03,0.3-0.1l2.99-2.23C63.93,60,64,59.85,64,59.7
		C64,59.54,63.93,59.4,63.8,59.31z M1.48,4.61l1.29-1.72l1.28,1.72H1.48z M12.61,59.21H9.75V35.73h2.87V59.21z M21.14,59.21h-2.87
		V41.34h2.87V59.21z M29.67,59.21H26.8V32.36h2.87V59.21z M38.19,59.21h-2.87V34.6h2.87V59.21z M46.73,59.21h-2.87V25.62h2.87V59.21
		z M55.26,59.21h-2.87V18.9h2.87V59.21z M61.01,60.95V59.7c0-0.01,0-0.01,0-0.01v-1.24l1.67,1.25L61.01,60.95z"/><rect width="2.87" height="40.31" x="52.39" y="18.9" fill="#bfdda0"/><rect width=".92" height="40.31" x="52.39" y="18.9" fill="#a5d179"/><rect width="2.87" height="33.59" x="43.86" y="25.62" fill="#ffdb7c"/><rect width="2.86" height="24.61" x="35.33" y="34.6" fill="#d8dfe6"/><rect width="2.87" height="26.86" x="26.8" y="32.35" fill="#e2cec3"/><rect width="2.86" height="23.49" x="9.75" y="35.72" fill="#4ebce5"/><rect width="2.87" height="17.88" x="18.27" y="41.33" fill="#f1b8c7"/><polygon fill="#a5d179" points="4.05 4.61 1.48 4.61 2.77 2.89"/><path fill="#ec9aad" d="M62.68,59.7l-1.67,1.25V59.7c0-0.01,0-0.01,0-0.01v-1.24L62.68,59.7z"/><path fill="#4e5292" d="M19.42,34.51c0.09,0.06,0.19,0.1,0.29,0.1c0.14,0,0.28-0.06,0.38-0.18l8.29-10.17l8.18,3.64
		c0.2,0.09,0.43,0.04,0.57-0.13L54.66,7.39l0.08,2.08c0.01,0.26,0.23,0.47,0.49,0.47c0.01,0,0.01,0,0.02,0
		c0.27-0.01,0.48-0.24,0.47-0.51L55.6,6.11c-0.01-0.14-0.07-0.26-0.17-0.35c-0.1-0.09-0.24-0.13-0.38-0.12l-3.3,0.37
		c-0.27,0.03-0.46,0.27-0.43,0.54c0.03,0.27,0.28,0.46,0.54,0.43l2.04-0.23L36.63,26.85l-8.19-3.64c-0.2-0.09-0.44-0.03-0.58,0.14
		l-8.23,10.1l-8.15-5.98c-0.22-0.16-0.53-0.11-0.69,0.11c-0.16,0.22-0.11,0.53,0.11,0.69L19.42,34.51z"/><rect width=".93" height="33.59" x="43.86" y="25.62" fill="#f0ca6c"/><rect width=".92" height="24.61" x="35.34" y="34.6" fill="#ccd5dd"/><rect width=".92" height="26.86" x="26.81" y="32.35" fill="#cfb7a5"/><rect width=".92" height="17.88" x="18.28" y="41.33" fill="#ec9aad"/><rect width=".92" height="23.49" x="9.76" y="35.72" fill="#39b4d5"/></svg>