<?xml version="1.0" encoding="UTF-8"?>
<svg xmlns="http://www.w3.org/2000/svg" xmlns:xlink="http://www.w3.org/1999/xlink" viewBox="0 0 90 90" width="90px" height="90px">
<g id="surface29227581">
<rect x="0" y="0" width="90" height="90" style="fill:rgb(3.529412%,3.137255%,3.137255%);fill-opacity:1;stroke:none;"/>
<path style=" stroke:none;fill-rule:nonzero;fill:rgb(99.215686%,98.431373%,98.431373%);fill-opacity:1;" d="M 45 9 C 25.117188 9 9 25.117188 9 45 C 9 61.867188 20.617188 75.984375 36.277344 79.890625 C 36.109375 79.402344 36 78.839844 36 78.140625 L 36 71.988281 C 34.539062 71.988281 32.089844 71.988281 31.476562 71.988281 C 29.011719 71.988281 26.824219 70.929688 25.761719 68.960938 C 24.582031 66.773438 24.378906 63.429688 21.457031 61.382812 C 20.589844 60.703125 21.25 59.925781 22.246094 60.03125 C 24.09375 60.550781 25.621094 61.816406 27.0625 63.695312 C 28.496094 65.578125 29.171875 66.003906 31.851562 66.003906 C 33.148438 66.003906 35.09375 65.929688 36.925781 65.640625 C 37.90625 63.140625 39.609375 60.839844 41.6875 59.753906 C 29.699219 58.519531 23.980469 52.558594 23.980469 44.460938 C 23.980469 40.972656 25.464844 37.601562 27.988281 34.761719 C 27.160156 31.941406 26.117188 26.191406 28.304688 24 C 33.699219 24 36.960938 27.496094 37.742188 28.441406 C 40.429688 27.523438 43.382812 27 46.484375 27 C 49.59375 27 52.558594 27.523438 55.25 28.449219 C 56.023438 27.511719 59.289062 24 64.695312 24 C 66.890625 26.191406 65.839844 31.96875 65 34.78125 C 67.507812 37.617188 68.984375 40.980469 68.984375 44.460938 C 68.984375 52.550781 63.273438 58.511719 51.304688 59.75 C 54.597656 61.46875 57 66.300781 57 69.9375 L 57 78.140625 C 57 78.453125 56.929688 78.679688 56.894531 78.945312 C 70.921875 74.027344 81 60.707031 81 45 C 81 25.117188 64.882812 9 45 9 Z M 45 9 "/>
</g>
</svg>
