<?xml version="1.0" standalone="no"?>
<!DOCTYPE svg PUBLIC "-//W3C//DTD SVG 20010904//EN"
 "http://www.w3.org/TR/2001/REC-SVG-20010904/DTD/svg10.dtd">
<svg version="1.0" xmlns="http://www.w3.org/2000/svg"
 width="96.000000pt" height="96.000000pt" viewBox="0 0 96.000000 96.000000"
 preserveAspectRatio="xMidYMid meet">

<g transform="translate(0.000000,96.000000) scale(0.100000,-0.100000)"
fill="#000000" stroke="none">
<path d="M79 931 l-29 -29 0 -422 0 -422 29 -29 29 -29 372 0 372 0 29 29 29
29 0 422 0 422 -29 29 -29 29 -372 0 -372 0 -29 -29z m776 -451 l0 -425 -375
0 -375 0 -3 415 c-1 228 0 421 3 428 3 10 84 12 377 10 l373 -3 0 -425z"/>
<path d="M267 814 c-11 -11 -9 -404 2 -404 5 0 45 14 88 31 48 20 103 34 144
37 98 7 99 5 99 -184 l0 -154 45 0 45 0 0 168 c0 187 -8 215 -72 248 -40 21
-142 21 -210 0 l-47 -14 -3 137 -3 136 -40 3 c-23 2 -44 0 -48 -4z"/>
<path d="M594 793 c-3 -16 -19 -52 -35 -80 l-29 -53 48 0 c38 0 50 4 61 23 28
43 51 96 51 117 0 17 -6 20 -45 20 -40 0 -45 -3 -51 -27z"/>
<path d="M270 240 l0 -91 50 43 c27 24 50 45 50 48 0 3 -23 24 -50 48 l-50 43
0 -91z"/>
</g>
</svg>
